<svg width="28" height="25" viewBox="0 0 28 25" fill="none" xmlns="http://www.w3.org/2000/svg">
<path d="M25.8735 11.4062H1.09382C0.489511 11.4062 2.09808e-05 11.8957 2.09808e-05 12.4999C2.09808e-05 13.1032 0.489609 13.5938 1.09382 13.5938H25.8735C26.4777 13.5938 26.9673 13.1042 26.9673 12.4999C26.9662 11.8947 26.4777 11.4062 25.8735 11.4062Z" fill="#0B9623"/>
<path d="M26.8649 11.7244L16.1524 1.01073C15.7254 0.58387 15.0331 0.58387 14.6062 1.01073C14.1793 1.4376 14.1793 2.13005 14.6062 2.55692L24.5467 12.4974L14.6062 22.4379C14.1793 22.8648 14.1793 23.5571 14.6062 23.984C14.8197 24.1975 15.0989 24.3047 15.3793 24.3047C15.6597 24.3047 15.9389 24.1975 16.1524 23.984L26.866 13.2704C27.2929 12.8435 27.2929 12.1512 26.8649 11.7244Z" fill="#0B9623"/>
</svg>
